<?xml version="1.0" encoding="UTF-8"?><svg id="Layer_5" xmlns="http://www.w3.org/2000/svg" viewBox="0 0 172.06 233.61"><defs><style>.cls-1,.cls-2{fill:#fff;}.cls-3,.cls-4,.cls-5,.cls-2,.cls-6{stroke-miterlimit:10;}.cls-3,.cls-5,.cls-6{stroke:#000;}.cls-3,.cls-6{fill:none;}.cls-7{fill:#bfbfbf;}.cls-4,.cls-2{stroke:#fff;}.cls-4,.cls-6{stroke-width:3px;}.cls-8,.cls-5{fill:#020202;}.cls-6{stroke-linecap:round;}</style></defs><path class="cls-4" d="m143.48,142.25c-6.08-9.01-19.87-6.86-49.45-6.27-40.55.82-56.84-2.36-62.69,7.88-2.07,3.63-2.07,7.6-1.72,10.44,2.34,12.58,4.87,22.85,6.95,30.42,1.34,4.87,2.62,9.13,3.72,12.56,9.77,4.57,20.32,7.76,31.39,9.36,5.28.76,10.66,1.15,16.15,1.15,11.25,0,22.11-1.65,32.37-4.73,5.41-1.61,10.65-3.62,15.67-6.01,1.26-3.96,2.48-8.07,3.62-12.33,2.91-10.81,5.13-21.25,6.55-30.46.3-3.28.16-7.99-2.55-12.01Z"/><line class="cls-3" x1="29.62" y1="156.55" x2="29.59" y2="156.39"/><polygon class="cls-2" points="95.51 161.46 107.5 178.05 95.51 188.69 83.52 178.05 95.51 161.46"/><path class="cls-1" d="m74.98,207.07c-3-.43-6-.85-9.01-1.28-3.67-17.25-7.34-34.51-11.01-51.76,2.92-.17,5.84-.33,8.77-.5,3.75,17.85,7.5,35.7,11.25,53.55Z"/><path class="cls-1" d="m116.75,204.04c2.89-.89,5.78-1.78,8.66-2.67,3.51-15.28,7.02-30.56,10.53-45.83-2.76-.32-5.53-.63-8.29-.95-3.64,16.48-7.27,32.97-10.91,49.45Z"/><g><path d="m27.87,66.7c-.61,0-1.15-.22-1.56-.64-.45-.45-1.82-1.82.5-7.83,4.12-10.68,16.92-27.94,33.72-28.76.44-.02.88-.03,1.31-.03,4.19,0,8.42,1,12.57,2.96,3.33-3.78,7.22-6.51,11.58-8.12,3.01-1.11,6.26-1.68,9.67-1.68,15.35,0,30.8,11.45,35.14,17.86,1.12,1.65,1.46,2.96,1.04,4.01-.59,1.47-2.21,1.47-2.9,1.47-.42,0-.93-.02-1.54-.05-.7-.03-1.55-.07-2.56-.09-.31,0-.64,0-.98,0-1.52,0-3.05.06-4.67.19-6.51.51-10.49,1.75-14.01,2.84-2.8.87-5.22,1.62-8.24,1.81-.46.03-.93.04-1.42.04-6.09,0-12.45-2.52-18.92-7.51-4.3,7.67-9.6,12.65-15.76,14.84-2.85,1.01-5.37,1.26-8.28,1.56-3.67.38-7.82.8-14.01,2.9-3.64,1.22-5.99,2.37-7.54,3.13l-.22.11c-1.27.6-2.09.99-2.9.99Z"/><path class="cls-1" d="m95.65,24.11c18.1,0,36.07,16.6,34.79,19.81-.17.42-.62.53-1.51.53s-2.2-.11-4.08-.14c-.32,0-.65,0-1,0-1.34,0-2.92.05-4.79.2-11.8.93-15.69,4.24-22.23,4.65-.43.03-.87.04-1.33.04-4.93,0-11.42-1.74-19.39-8.3-5.19,10-11.02,14.02-15.79,15.71-6.18,2.19-11.06.66-22.27,4.45-3.9,1.31-6.34,2.53-7.94,3.31-1.1.52-1.78.84-2.25.84-.2,0-.37-.06-.5-.2-2.87-2.87,11.32-32.95,33.24-34.03.42-.02.83-.03,1.24-.03,5.11,0,9.56,1.58,12.95,3.33,2.6-3.16,6.44-6.62,11.72-8.58,2.99-1.11,6.07-1.59,9.15-1.59m0-3h0c-3.58,0-7.01.6-10.19,1.77-4.27,1.58-8.11,4.17-11.43,7.71-4.02-1.76-8.12-2.65-12.19-2.65-.46,0-.93.01-1.39.03-8.02.39-15.96,4.35-22.98,11.46-5.16,5.23-9.67,12.05-12.07,18.26-1.82,4.72-1.87,7.72-.16,9.43.69.69,1.63,1.08,2.62,1.08,1.15,0,2.15-.47,3.53-1.13l.26-.13c1.52-.74,3.81-1.86,7.35-3.05,6.03-2.04,10.1-2.46,13.69-2.82,2.88-.29,5.61-.57,8.63-1.64,6.11-2.16,11.38-6.88,15.71-14.04,6.27,4.52,12.47,6.8,18.47,6.8.5,0,1.01-.02,1.52-.05,3.2-.2,5.82-1.02,8.59-1.88,3.44-1.07,7.35-2.28,13.68-2.78,1.59-.13,3.08-.19,4.56-.19.33,0,.65,0,.95,0,.99.01,1.81.05,2.52.08.61.03,1.14.05,1.61.05,2.2,0,3.65-.81,4.29-2.4.92-2.3-.67-4.64-1.19-5.41-4.5-6.65-20.5-18.52-36.38-18.52h0Z"/></g><path class="cls-1" d="m163.51,152.26c-.82.98-6.9,8.3-14.01,7.47-1.26-.15-2.39-.55-3.43-1.11,0-2.36-17.04-4.56-40.26-5.34l-10.26,10.26-10.54-10.54c-30.6.15-55.41,2.79-55.41,5.64-1.03.55-2.15.94-3.39,1.09-7.11.83-13.19-6.49-14.01-7.47-10.91-13.15-6.52-37.49,4.34-53.44,1.61-2.37,3.55-5.23,5.85-7.86-.01-.13-.01-.28-.01-.42,0-9.47,2.8-18.38,7.75-26.18,1.6-.78,4.04-2,7.94-3.31,11.21-3.79,16.09-2.27,22.27-4.45,4.77-1.69,10.61-5.71,15.79-15.71,8.7,7.17,15.65,8.58,20.71,8.26,6.54-.42,10.43-3.73,22.23-4.65,2.36-.19,4.26-.21,5.79-.19,17.66,9.97,29.28,26.96,29.28,46.24,0,.46,0,.91-.01,1.37,1.94,2.35,3.62,4.83,5.04,6.9,10.85,15.95,15.27,40.29,4.34,53.44Z"/><ellipse class="cls-7" cx="68.04" cy="94.8" rx="13.23" ry="13.78" transform="translate(-47.11 75.89) rotate(-45.01)"/><ellipse class="cls-7" cx="134.7" cy="94.8" rx="13.78" ry="13.23" transform="translate(-27.58 122.99) rotate(-44.99)"/><path class="cls-6" d="m96.35,92.05c-1.37,1.58-1.4,3.67-.48,4.67,1.09,1.18,3.84,1.17,5.47-.97,1.94,2.23,4.79,2.16,5.79.97.8-.95.67-2.9-.56-4.5"/><path class="cls-8" d="m90.49,58.18c.84,1.4-.37,3.68-2.71,5.09-2.34,1.41-4.92,1.42-5.76.03-.84-1.4.37-3.68,2.71-5.09,2.34-1.41,4.92-1.42,5.76-.03Z"/><path class="cls-8" d="m111.94,58.18c-.84,1.4.37,3.68,2.71,5.09,2.34,1.41,4.92,1.42,5.76.03.84-1.4-.37-3.68-2.71-5.09-2.34-1.41-4.92-1.42-5.76-.03Z"/><ellipse class="cls-5" cx="80.66" cy="82.44" rx="6.84" ry="7.52" transform="translate(-34.67 81.19) rotate(-45)"/><ellipse class="cls-5" cx="122.17" cy="82.44" rx="7.52" ry="6.84" transform="translate(-22.51 110.52) rotate(-45)"/></svg>